<?xml version="1.0" encoding="utf-8"?>
<!-- Generator: Adobe Illustrator 21.0.0, SVG Export Plug-In . SVG Version: 6.00 Build 0)  -->
<svg version="1.1" id="图层_1" xmlns="http://www.w3.org/2000/svg" xmlns:xlink="http://www.w3.org/1999/xlink" x="0px" y="0px"
	 viewBox="0 0 836.4 303.6" style="enable-background:new 0 0 836.4 303.6;" xml:space="preserve">
<style type="text/css">
	.st0{fill:none;stroke:#545A6E;stroke-width:4;stroke-linecap:round;stroke-linejoin:round;stroke-miterlimit:10;}
	.st1{fill:#FFFFFF;stroke:#545A6E;stroke-width:4;stroke-linecap:round;stroke-linejoin:round;stroke-miterlimit:10;}
	.st2{fill:#20A0FF;}
	.st3{fill:#545A6E;}
	.st4{fill:#DAEEFA;}
	.st5{fill:#FFFFFF;stroke:#545A6E;stroke-width:3;stroke-linecap:round;stroke-linejoin:round;stroke-miterlimit:10;}
	.st6{fill:none;stroke:#545A6E;stroke-width:3;stroke-linecap:round;stroke-linejoin:round;stroke-miterlimit:10;}
	.st7{fill:#20A0FF;stroke:#545A6E;stroke-width:3;stroke-linecap:round;stroke-linejoin:round;stroke-miterlimit:10;}
	.st8{fill:#20A0FF;stroke:#545A6E;stroke-width:2.8315;stroke-linecap:round;stroke-linejoin:round;stroke-miterlimit:10;}
	.st9{fill:#FFFFFF;stroke:#545A6E;stroke-width:3.0825;stroke-linecap:round;stroke-linejoin:round;stroke-miterlimit:10;}
	.st10{fill:none;stroke:#545A6E;stroke-width:3.0825;stroke-linecap:round;stroke-linejoin:round;stroke-miterlimit:10;}
	.st11{fill:#FFFFFF;}
</style>
<g>
	<line class="st0" x1="363.3" y1="220" x2="269.3" y2="260.1"/>
	<line class="st0" x1="261.3" y1="264.1" x2="205.5" y2="287.8"/>
	<line class="st0" x1="196.7" y1="291.3" x2="182" y2="297.7"/>
	<line class="st0" x1="608.5" y1="264.1" x2="664.2" y2="287.8"/>
	<line class="st0" x1="673.1" y1="291.3" x2="687.8" y2="297.7"/>
	<line class="st0" x1="505.5" y1="220" x2="599.5" y2="260.1"/>
	<path class="st1" d="M358.2,230.8L358.2,230.8c-1.4-1.9-4-2.2-5.8-0.8l-13.9,10.7v-133c0-2.8-2.3-5.2-5.2-5.2
		c-2.8,0-5.2,2.3-5.2,5.2V247c0,0.5,0.1,1,0.2,1.4l-26.9,20.7c-1.8,1.4-2,4.7-0.5,6.3c0.3,0.4,0.8,0.9,1.2,1.3
		c1.5,1.7,4.4,1.8,6.2,0.4l49-40.6C359.2,235.2,359.6,232.6,358.2,230.8z"/>
	<path class="st1" d="M558.4,269.1l-26.9-20.7c0.1-0.5,0.2-0.9,0.2-1.4V107.6c0-2.8-2.3-5.2-5.2-5.2l0,0c-2.8,0-5.2,2.3-5.2,5.2v133
		l-13.9-10.7c-1.8-1.4-4.4-1-5.8,0.8l-0.1,0.1c-1.4,1.8-1,4.4,0.8,5.8l49,40.6c1.8,1.4,4.7,1.2,6.2-0.4c0.3-0.4,0.8-1,1.2-1.3
		C560.4,273.8,560.2,270.4,558.4,269.1z"/>
	<path class="st1" d="M548.5,220H311.6c-1.6,0-2.8-1.3-2.8-2.8v-21.1c0-1.6,1.3-2.8,2.8-2.8h236.9c1.6,0,2.8,1.3,2.8,2.8v21.1
		C551.3,218.7,550.1,220,548.5,220z"/>
	<path class="st1" d="M548.5,173.3H311.6c-1.6,0-2.8-1.3-2.8-2.8v-21.1c0-1.6,1.3-2.8,2.8-2.8h236.9c1.6,0,2.8,1.3,2.8,2.8v21.1
		C551.3,172,550.1,173.3,548.5,173.3z"/>
	<polygon class="st2" points="346.1,146.6 332.7,173.3 354.5,173.3 366.7,146.6 	"/>
	<polygon class="st2" points="399.3,146.6 385.9,173.3 407.7,173.3 419.9,146.6 	"/>
	<polygon class="st2" points="450.8,146.6 437.3,173.3 459.2,173.3 471.3,146.6 	"/>
	<polygon class="st2" points="505.1,146.6 491.7,173.3 513.5,173.3 525.7,146.6 	"/>
	<polygon class="st2" points="346.1,193.2 332.7,220 354.5,220 366.7,193.2 	"/>
	<polygon class="st2" points="399.3,193.2 385.9,220 407.7,220 419.9,193.2 	"/>
	<polygon class="st2" points="450.8,193.2 437.3,220 459.2,220 471.3,193.2 	"/>
	<polygon class="st2" points="505.1,193.2 491.7,220 513.5,220 525.7,193.2 	"/>
	<circle class="st3" cx="333" cy="153.7" r="2.1"/>
	<circle class="st3" cx="333" cy="166.8" r="2.1"/>
	<circle class="st3" cx="525.7" cy="153.7" r="2.1"/>
	<circle class="st3" cx="525.7" cy="166.8" r="2.1"/>
	<circle class="st3" cx="333" cy="200.7" r="2.1"/>
	<circle class="st3" cx="333" cy="213.8" r="2.1"/>
	<circle class="st3" cx="525.7" cy="200.7" r="2.1"/>
	<circle class="st3" cx="525.7" cy="213.8" r="2.1"/>
	<polygon class="st4" points="415.3,268.1 436.4,268.1 447.5,298.3 403.9,298.3 	"/>
	<polygon class="st4" points="420,233 431.5,233 437.1,248.1 414.2,248.1 	"/>
	<path class="st0" d="M548.5,220H311.6c-1.6,0-2.8-1.3-2.8-2.8v-21.1c0-1.6,1.3-2.8,2.8-2.8h236.9c1.6,0,2.8,1.3,2.8,2.8v21.1
		C551.3,218.7,550.1,220,548.5,220z"/>
	<path class="st0" d="M548.5,173.3H311.6c-1.6,0-2.8-1.3-2.8-2.8v-21.1c0-1.6,1.3-2.8,2.8-2.8h236.9c1.6,0,2.8,1.3,2.8,2.8v21.1
		C551.3,172,550.1,173.3,548.5,173.3z"/>
	<path class="st3" d="M801.2,298.7l-766-0.8c-1.2,0-2.5,1.2-2.5,2.5c0,1.2,1.2,2.5,2.5,2.5l766,0.8c1.2,0,2.5-0.8,2.5-2.5
		C803.6,300,802.4,298.7,801.2,298.7L801.2,298.7z M22.9,297.9H2.5c-1.2,0-2.5,1.2-2.5,2.5c0,1.2,1.2,2.5,2.5,2.5h20.5
		c1.2,0,2.5-1.2,2.5-2.5C25.4,299.1,24.2,297.9,22.9,297.9L22.9,297.9z M834,297.9h-20.5c-1.2,0-2.5,1.2-2.5,2.5
		c0,1.2,1.2,2.5,2.5,2.5H834c1.2,0,2.5-1.2,2.5-2.5C836.4,299.1,835.2,297.9,834,297.9L834,297.9z M834,297.9"/>
	<g>
		<path class="st2" d="M441.9,274c-4.8,0.4-29.2,14.8,1.3,15.6c7.9,0.2,7.6,0.1,10.6,1.5c1.6,0.7,3,2.9,4.6,4.2c1,0.8,2.8,2,5,2.9
			c1,0.4,1.1,1.5,2.5,2.9c1.2,1.2,2.9,1.3,5,0c1.3-0.8,2.4-2.2,3.1-2.7c1.4-0.9,2.5-2.5,3.1-4.8c3-10.8,11-8.8,13-10.6
			c5.1-4.3-11.3-10-17-9.8C462.3,273.7,447.8,273.5,441.9,274z"/>
		<ellipse class="st2" cx="490" cy="292.2" rx="4" ry="2.8"/>
		<path class="st5" d="M443.2,254h30v25.8c0,0-3,4.4-15,4.4c-10.4,0-15-4.4-15-4.4V254z"/>
		<path class="st6" d="M451.9,258.2c0,0,4.2,13.5,20.5,13.5c2.1,0,7-0.4,5.8-5.9c-0.6-2.9-1.9-4.6-5.1-7.9"/>
		<ellipse class="st7" cx="458.2" cy="254" rx="15" ry="4.6"/>
		
			<rect x="507.7" y="282.9" transform="matrix(0.9827 -0.185 0.185 0.9827 -44.1985 101.1991)" class="st8" width="25.3" height="9.2"/>
		<ellipse class="st9" cx="507.3" cy="290.2" rx="4.3" ry="4.7"/>
		<ellipse class="st2" cx="531.7" cy="285.5" rx="4.3" ry="4.7"/>
		<ellipse class="st10" cx="531.7" cy="285.5" rx="4.3" ry="4.7"/>
		<polygon class="st2" points="525.3,283.3 531.3,282.4 532.2,288.6 526.1,289.6 		"/>
		<line class="st6" x1="520.8" y1="287.9" x2="534.2" y2="301.7"/>
	</g>
	<g>
		<path class="st4" d="M171.9,38.7c0,0,17.3-7.7,20.3,6.5c7.6-4,12.7-12,12.7-21.2c0-13.3-10.8-24-24-24c-11.6,0-21.3,8.2-23.6,19.2
			C166,22.5,171.6,31,171.9,38.7z"/>
		<path class="st4" d="M176.7,47.7c1.4,0.2,2.8,0.4,4.2,0.4c1.2,0,2.4-0.1,3.6-0.3L176.7,47.7z"/>
	</g>
	<path class="st0" d="M103.6,46.7h21.3c0,0-5.4-20.2,17.3-27.7c16.7-5.5,29.2,8,29.7,19.7c0,0,19.5-8.6,20.7,9.3h12.3"/>
	<path class="st0" d="M610.4,36.3h23.7c0,0-0.5-6.8,5.5-8.8c7.5-2.5,11.5,2.8,11.5,2.8S652.3,15,672,12
		c15.8-2.4,25.4,10.6,25.4,18.6c0,0,13-4.7,14.9,5.7h5.7"/>
	<path class="st1" d="M546.3,126.6H313.7c-2.7,0-5-2.2-5-5v-73c0-2.7,2.2-5,5-5h232.6c2.7,0,5,2.2,5,5v73
		C551.3,124.4,549.1,126.6,546.3,126.6z"/>
	<g>
		<g>
			<rect x="317.7" y="52.4" class="st2" width="223.3" height="65.5"/>
			<path class="st11" d="M538.5,54.9v60.5H320.2V54.9H538.5 M543.5,49.9h-5H320.2h-5v5v60.5v5h5h218.3h5v-5V54.9V49.9L543.5,49.9z"
				/>
		</g>
		<g>
			<path class="st11" d="M393.2,88.2V81h8.8v7.2h4.7v8h-4.7v9.8h-8.8v-9.8h-16.6v-7l14.7-24.3h10l-14,23.4H393.2z M393.2,88.2"/>
			<path class="st11" d="M429.5,106.5c-5.7,0-10-1.9-12.8-5.8c-2.8-3.9-4.2-9-4.2-15.5c0-6.5,1.4-11.6,4.2-15.5
				c2.8-3.9,7.1-5.8,12.8-5.8c5.7,0,10,1.9,12.8,5.8c2.8,3.9,4.2,9,4.2,15.5c0,6.5-1.4,11.6-4.2,15.5
				C439.5,104.5,435.2,106.5,429.5,106.5L429.5,106.5z M423.5,75.2c-1.3,2.5-1.9,5.8-1.9,10c0,4.1,0.6,7.4,1.9,10
				c1.3,2.5,3.3,3.8,6.1,3.8c2.8,0,4.8-1.3,6.1-3.8c1.3-2.5,1.9-5.8,1.9-10c0-4.1-0.6-7.4-1.9-10c-1.3-2.5-3.3-3.8-6.1-3.8
				C426.8,71.5,424.8,72.7,423.5,75.2L423.5,75.2z M423.5,75.2"/>
			<path class="st11" d="M468.5,88.2V81h8.8v7.2h4.7v8h-4.7v9.8h-8.8v-9.8H452v-7l14.7-24.3h10l-14,23.4H468.5z M468.5,88.2"/>
		</g>
	</g>
	<path class="st0" d="M678.2,292.8c0,0,5.3-19.3,20-15.3c0,0,4.7-30.7,38-20.7c0,0,6-20,30-20"/>
	<path class="st0" d="M571.8,245.7c0,0,12-18.7,39.3-8.7c0,0,7.3-15.3,22-10.7c0,0,2.7-41.3,48-41.3c0,0-1.3-36,36.7-38.7
		c0,0-4.7-28.7,24.7-30.7c0,0,0-48,46.7-52"/>
	<path class="st0" d="M191.6,292.8c0,0-5.3-19.3-20-15.3c0,0-4.7-30.7-38-20.7c0,0-6-20-30-20"/>
	<path class="st0" d="M298,245.7c0,0-12-18.7-39.3-8.7c0,0-7.3-15.3-22-10.7c0,0-2.7-41.3-48-41.3c0,0,1.3-36-36.7-38.7
		c0,0,4.7-28.7-24.7-30.7c0,0,0-48-46.7-52"/>
</g>
</svg>
